  0
SECTION
  2
HEADER
  9
$ACADVER
  1
AC1009
  9
$DWGCODEPAGE
  3
ansi_1251
  9
$INSBASE
 10
0.0
 20
0.0
 30
0.0
  9
$EXTMIN
 10
-3.214821718678991
 20
-26.15517723432498
 30
0.0
  9
$EXTMAX
 10
81.51070488029286
 20
34.96325306548431
 30
0.0
  9
$LIMMIN
 10
0.0
 20
0.0
  9
$LIMMAX
 10
12.0
 20
9.0
  9
$ORTHOMODE
 70
     0
  9
$REGENMODE
 70
     1
  9
$FILLMODE
 70
     1
  9
$QTEXTMODE
 70
     0
  9
$MIRRTEXT
 70
     0
  9
$DRAGMODE
 70
     2
  9
$LTSCALE
 40
1.0
  9
$OSMODE
 70
   511
  9
$ATTMODE
 70
     1
  9
$TEXTSIZE
 40
0.01
  9
$TRACEWID
 40
0.05
  9
$TEXTSTYLE
  7
—“»À‹1
  9
$CLAYER
  8
—ÀŒ…1
  9
$CELTYPE
  6
BYLAYER
  9
$CECOLOR
 62
   256
  9
$DIMSCALE
 40
1.0
  9
$DIMASZ
 40
0.001
  9
$DIMEXO
 40
0.0005
  9
$DIMDLI
 40
0.01
  9
$DIMRND
 40
0.0
  9
$DIMDLE
 40
0.0
  9
$DIMEXE
 40
0.0005
  9
$DIMTP
 40
0.0
  9
$DIMTM
 40
0.0
  9
$DIMTXT
 40
0.002
  9
$DIMCEN
 40
0.0
  9
$DIMTSZ
 40
0.0
  9
$DIMTOL
 70
     0
  9
$DIMLIM
 70
     0
  9
$DIMTIH
 70
     0
  9
$DIMTOH
 70
     0
  9
$DIMSE1
 70
     0
  9
$DIMSE2
 70
     0
  9
$DIMTAD
 70
     0
  9
$DIMZIN
 70
     0
  9
$DIMBLK
  1
OBLIQUE
  9
$DIMASO
 70
     1
  9
$DIMSHO
 70
     1
  9
$DIMPOST
  1

  9
$DIMAPOST
  1

  9
$DIMALT
 70
     0
  9
$DIMALTD
 70
     2
  9
$DIMALTF
 40
25.4
  9
$DIMLFAC
 40
1.0
  9
$DIMTOFL
 70
     0
  9
$DIMTVP
 40
0.0
  9
$DIMTIX
 70
     0
  9
$DIMSOXD
 70
     0
  9
$DIMSAH
 70
     0
  9
$DIMBLK1
  1

  9
$DIMBLK2
  1

  9
$DIMSTYLE
  2
 Œœ»ﬂ
  9
$DIMCLRD
 70
   256
  9
$DIMCLRE
 70
   256
  9
$DIMCLRT
 70
     0
  9
$DIMTFAC
 40
1.0
  9
$DIMGAP
 40
0.001
  9
$LUNITS
 70
     2
  9
$LUPREC
 70
     4
  9
$SKETCHINC
 40
0.1
  9
$FILLETRAD
 40
0.0
  9
$AUNITS
 70
     0
  9
$AUPREC
 70
     5
  9
$MENU
  1
.
  9
$ELEVATION
 40
0.0
  9
$PELEVATION
 40
0.0
  9
$THICKNESS
 40
0.0
  9
$LIMCHECK
 70
     0
  9
$CHAMFERA
 40
0.0
  9
$CHAMFERB
 40
0.0
  9
$SKPOLY
 70
     0
  9
$TDCREATE
 40
2456721.72098522
  9
$TDUPDATE
 40
2458485.00024118
  9
$TDINDWG
 40
0.0764678935
  9
$TDUSRTIMER
 40
0.0002278472
  9
$USRTIMER
 70
     1
  9
$ANGBASE
 50
90.0
  9
$ANGDIR
 70
     0
  9
$PDMODE
 70
     0
  9
$PDSIZE
 40
0.0
  9
$PLINEWID
 40
0.0
  9
$COORDS
 70
     1
  9
$SPLFRAME
 70
     0
  9
$SPLINETYPE
 70
     6
  9
$SPLINESEGS
 70
     8
  9
$ATTDIA
 70
     0
  9
$ATTREQ
 70
     1
  9
$HANDLING
 70
     1
  9
$HANDSEED
  5
114
  9
$SURFTAB1
 70
     6
  9
$SURFTAB2
 70
     6
  9
$SURFTYPE
 70
     6
  9
$SURFU
 70
     6
  9
$SURFV
 70
     6
  9
$UCSNAME
  2

  9
$UCSORG
 10
0.0
 20
0.0
 30
0.0
  9
$UCSXDIR
 10
1.0
 20
0.0
 30
0.0
  9
$UCSYDIR
 10
0.0
 20
1.0
 30
0.0
  9
$PUCSNAME
  2

  9
$PUCSORG
 10
0.0
 20
0.0
 30
0.0
  9
$PUCSXDIR
 10
1.0
 20
0.0
 30
0.0
  9
$PUCSYDIR
 10
0.0
 20
1.0
 30
0.0
  9
$USERI1
 70
     0
  9
$USERI2
 70
     0
  9
$USERI3
 70
     0
  9
$USERI4
 70
     0
  9
$USERI5
 70
     0
  9
$USERR1
 40
0.0
  9
$USERR2
 40
0.0
  9
$USERR3
 40
0.0
  9
$USERR4
 40
0.0
  9
$USERR5
 40
0.0
  9
$WORLDVIEW
 70
     1
  9
$SHADEDGE
 70
     3
  9
$SHADEDIF
 70
    70
  9
$TILEMODE
 70
     1
  9
$MAXACTVP
 70
    64
  9
$PLIMCHECK
 70
     0
  9
$PEXTMIN
 10
0.0
 20
0.0
 30
0.0
  9
$PEXTMAX
 10
0.0
 20
0.0
 30
0.0
  9
$PLIMMIN
 10
0.0
 20
0.0
  9
$PLIMMAX
 10
0.0
 20
0.0
  9
$UNITMODE
 70
     0
  9
$VISRETAIN
 70
     1
  9
$PLINEGEN
 70
     0
  9
$PSLTSCALE
 70
     1
  0
ENDSEC
  0
SECTION
  2
TABLES
  0
TABLE
  2
VPORT
 70
     1
  0
VPORT
  2
*ACTIVE
 70
     0
 10
0.0
 20
0.0
 11
1.0
 21
1.0
 12
39.14794158080694
 22
4.404037915579666
 13
0.0
 23
0.0
 14
0.5
 24
0.5
 15
0.5
 25
0.5
 16
0.0
 26
0.0
 36
1.0
 17
0.0
 27
0.0
 37
0.0
 40
76.25297393907466
 41
1.333333333333333
 42
50.0
 43
0.0
 44
0.0
 50
0.0
 51
0.0
 71
    16
 72
  1000
 73
     1
 74
     3
 75
     0
 76
     0
 77
     0
 78
     0
  0
ENDTAB
  0
TABLE
  2
LTYPE
 70
     1
  0
LTYPE
  2
CONTINUOUS
 70
     0
  3
Solid line
 72
    65
 73
     0
 40
0.0
  0
ENDTAB
  0
TABLE
  2
LAYER
 70
     6
  0
LAYER
  2
0
 70
     0
 62
     7
  6
CONTINUOUS
  0
LAYER
  2
0_045
 70
     6
 62
     5
  6
CONTINUOUS
  0
LAYER
  2
»—’ŒƒÕŒ≈
 70
     6
 62
     1
  6
CONTINUOUS
  0
LAYER
  2
0_040
 70
     6
 62
   135
  6
CONTINUOUS
  0
LAYER
  2
—ÀŒ…1
 70
     2
 62
     6
  6
CONTINUOUS
  0
LAYER
  2
DEFPOINTS
 70
     0
 62
     7
  6
CONTINUOUS
  0
ENDTAB
  0
TABLE
  2
STYLE
 70
     3
  0
STYLE
  2
STANDARD
 70
     0
 40
0.0
 41
1.0
 50
0.0
 71
     0
 42
0.01
  3
arial.ttf
  4

  0
STYLE
  2
\U+0413\U+041E\U+0421\U+0422
 70
     0
 40
3.0
 41
1.0
 50
0.0
 71
     0
 42
0.01
  3
isocpeur.ttf
  4

  0
STYLE
  2
—“»À‹1
 70
     0
 40
0.002
 41
1.0
 50
0.0
 71
     0
 42
0.01
  3
arial.ttf
  4

  0
ENDTAB
  0
TABLE
  2
VIEW
 70
     0
  0
ENDTAB
  0
TABLE
  2
UCS
 70
     0
  0
ENDTAB
  0
TABLE
  2
APPID
 70
     9
  0
APPID
  2
ACAD
 70
     0
  0
APPID
  2
ACADANNOTATIVE
 70
     0
  0
APPID
  2
ACAD_DSTYLE_DIMJAG
 70
     0
  0
APPID
  2
ACAD_DSTYLE_DIMTALN
 70
     0
  0
APPID
  2
ACAD_NAV_VCDISPLAY
 70
     0
  0
APPID
  2
ADE
 70
     0
  0
APPID
  2
ACAECLAYERSTANDARD
 70
     0
  0
APPID
  2
ACCMTRANSPARENCY
 70
     0
  0
APPID
  2
ACAD_DSTYLE_DIMBREAK
 70
     0
  0
ENDTAB
  0
TABLE
  2
DIMSTYLE
 70
     5
  0
DIMSTYLE
  2
STANDARD
 70
     0
  3

  4

  5

  6

  7

 40
1.0
 41
0.18
 42
0.0625
 43
0.38
 44
0.18
 45
0.0
 46
0.0
 47
0.0
 48
0.0
140
0.18
141
0.09
142
0.0
143
25.4
144
1.0
145
0.0
146
1.0
147
0.09
 71
     0
 72
     0
 73
     1
 74
     1
 75
     0
 76
     0
 77
     0
 78
     0
170
     0
171
     2
172
     0
173
     0
174
     0
175
     0
176
     0
177
     0
178
     0
  0
DIMSTYLE
  2
¿ÕÕŒ“¿“»¬Õ€…
 70
     0
  3

  4

  5

  6

  7

 40
0.0
 41
0.18
 42
0.0625
 43
0.38
 44
0.18
 45
0.0
 46
0.0
 47
0.0
 48
0.0
140
0.18
141
0.09
142
0.0
143
25.4
144
1.0
145
0.0
146
1.0
147
0.09
 71
     0
 72
     0
 73
     1
 74
     1
 75
     0
 76
     0
 77
     0
 78
     0
170
     0
171
     2
172
     0
173
     0
174
     0
175
     0
176
     0
177
     0
178
     0
  0
DIMSTYLE
  2
GENPLAN
 70
     0
  3

  4

  5

  6
OBLIQUE
  7
OBLIQUE
 40
1.0
 41
2.0
 42
1.5
 43
8.0
 44
1.3
 45
0.0
 46
0.0
 47
0.0
 48
0.0
140
3.0
141
-2.0
142
0.0
143
0.04
144
1.0
145
1.2
146
0.75
147
1.2
 71
     0
 72
     0
 73
     0
 74
     0
 75
     0
 76
     0
 77
     1
 78
     0
170
     0
171
     2
172
     1
173
     1
174
     1
175
     0
176
     0
177
     0
178
     0
  0
DIMSTYLE
  2
ANNOTATIVE
 70
     0
  3

  4

  5

  6

  7

 40
1.0
 41
0.18
 42
0.0625
 43
0.38
 44
0.18
 45
0.0
 46
0.0
 47
0.0
 48
0.0
140
0.18
141
0.09
142
0.0
143
25.4
144
1.0
145
0.0
146
1.0
147
0.09
 71
     0
 72
     0
 73
     1
 74
     1
 75
     0
 76
     0
 77
     0
 78
     0
170
     0
171
     2
172
     0
173
     0
174
     0
175
     0
176
     0
177
     0
178
     0
  0
DIMSTYLE
  2
 Œœ»ﬂ
 70
     0
  3

  4

  5
OBLIQUE
  6

  7

 40
1.0
 41
0.001
 42
0.0005
 43
0.01
 44
0.0005
 45
0.0
 46
0.0
 47
0.0
 48
0.0
140
0.002
141
0.0
142
0.0
143
25.4
144
1.0
145
0.0
146
1.0
147
0.001
 71
     0
 72
     0
 73
     0
 74
     0
 75
     0
 76
     0
 77
     0
 78
     0
170
     0
171
     2
172
     0
173
     0
174
     0
175
     0
176
   256
177
   256
178
     0
  0
ENDTAB
  0
ENDSEC
  0
SECTION
  2
BLOCKS
  0
BLOCK
  8
0
  2
$MODEL_SPACE
 70
     0
 10
0.0
 20
0.0
 30
0.0
  3
$MODEL_SPACE
  1

  0
ENDBLK
  5
26
  8
0
  0
BLOCK
 67
     1
  8
0
  2
$PAPER_SPACE
 70
     0
 10
0.0
 20
0.0
 30
0.0
  3
$PAPER_SPACE
  1

  0
ENDBLK
  5
2B
 67
     1
  8
0
  0
BLOCK
  8
0
  2
_OBLIQUE
 70
     0
 10
0.0
 20
0.0
 30
0.0
  3
_OBLIQUE
  1

  0
LINE
  5
2E
  8
0
  6
BYBLOCK
 62
     0
 10
-0.5
 20
-0.5
 30
0.0
 11
0.5
 21
0.5
 31
0.0
  0
ENDBLK
  5
2F
  8
0
  0
BLOCK
  8
0
  2
*D4
 70
     1
 10
0.0
 20
0.0
 30
0.0
  3
*D4
  1

  0
LINE
  5
8E
  8
0_040
 10
71.59360000000004
 20
0.0004999999999929
 30
0.0
 11
71.59360000000004
 21
0.0085272020311405
 31
0.0
  0
LINE
  5
8F
  8
0_040
 10
71.59510811888731
 20
0.0004999999999787
 30
0.0
 11
71.59510811888731
 21
0.0085272020311405
 31
0.0
  0
LINE
  5
90
  8
0_040
 10
71.59360000000004
 20
0.0080272020311405
 30
0.0
 11
71.59260000000003
 21
0.0080272020311405
 31
0.0
  0
LINE
  5
91
  8
0_040
 10
71.59510811888731
 20
0.0080272020311405
 30
0.0
 11
71.59610811888732
 21
0.0080272020311405
 31
0.0
  0
LINE
  5
92
  8
0_040
 10
71.59435405944367
 20
0.0080272020311405
 30
0.0
 11
71.5975885059163
 21
0.018514366472516
 31
0.0
  0
LINE
  5
93
  8
0_040
 10
71.5975885059163
 20
0.018514366472516
 30
0.0
 11
71.5995885059163
 21
0.018514366472516
 31
0.0
  0
TEXT
  5
94
  8
0_040
  6
CONTINUOUS
 62
     0
 10
71.60003663777819
 20
0.017514366472516
 30
0.0
 40
0.002
  1
0.00151
  7
—“»À‹1
  0
LINE
  5
95
  8
0_040
 10
71.59360000000004
 20
0.0080272020311405
 30
0.0
 11
71.59510811888731
 21
0.0080272020311405
 31
0.0
  0
INSERT
  5
96
  8
0_040
  2
_OBLIQUE
 10
71.59360000000004
 20
0.0080272020311405
 30
0.0
 41
0.001
 42
0.001
 43
0.001
  0
INSERT
  5
97
  8
0_040
  2
_OBLIQUE
 10
71.59510811888731
 20
0.0080272020311405
 30
0.0
 41
0.001
 42
0.001
 43
0.001
 50
180.0
  0
POINT
  5
98
  8
DEFPOINTS
 62
     0
 10
71.59360000000004
 20
-0.0000000000000071
 30
0.0
  0
POINT
  5
9A
  8
DEFPOINTS
 62
     0
 10
71.59510811888731
 20
-0.0000000000000213
 30
0.0
  0
POINT
  5
9B
  8
DEFPOINTS
 62
     0
 10
71.59510811888731
 20
0.0080272020311405
 30
0.0
  0
ENDBLK
  5
9C
  8
0
  0
BLOCK
  8
0
  2
*D7
 70
     1
 10
0.0
 20
0.0
 30
0.0
  3
*D7
  1

  0
LINE
  5
A3
  8
0_045
 10
71.59139590558824
 20
0.0005000000000462
 30
0.0
 11
71.59139590558824
 21
0.0085272020311725
 31
0.0
  0
LINE
  5
A4
  8
0_045
 10
71.59360000000004
 20
0.0004999999999929
 30
0.0
 11
71.59360000000004
 21
0.0085272020311725
 31
0.0
  0
LINE
  5
A5
  8
0_045
 10
71.59139590558824
 20
0.0080272020311725
 30
0.0
 11
71.59360000000004
 21
0.0080272020311725
 31
0.0
  0
LINE
  5
A6
  8
0_045
 10
71.59249795279413
 20
0.0080272020311725
 30
0.0
 11
71.58855111054653
 21
0.0178262304717691
 31
0.0
  0
LINE
  5
A7
  8
0_045
 10
71.58855111054653
 20
0.0178262304717691
 30
0.0
 11
71.58655111054654
 21
0.0178262304717691
 31
0.0
  0
TEXT
  5
A8
  8
0_045
  6
CONTINUOUS
 62
     0
 10
71.57472138274818
 20
0.0168262304717691
 30
0.0
 40
0.002
  1
0.00220
  7
—“»À‹1
  0
INSERT
  5
A9
  8
0_045
  2
_OBLIQUE
 10
71.59139590558824
 20
0.0080272020311725
 30
0.0
 41
0.001
 42
0.001
 43
0.001
 50
180.0
  0
INSERT
  5
AA
  8
0_045
  2
_OBLIQUE
 10
71.59360000000004
 20
0.0080272020311725
 30
0.0
 41
0.001
 42
0.001
 43
0.001
  0
POINT
  5
AB
  8
DEFPOINTS
 62
     0
 10
71.59139590558824
 20
0.0000000000000462
 30
0.0
  0
POINT
  5
AC
  8
DEFPOINTS
 62
     0
 10
71.59360000000004
 20
-0.0000000000000071
 30
0.0
  0
POINT
  5
AD
  8
DEFPOINTS
 62
     0
 10
71.59360000000004
 20
0.0080272020311725
 30
0.0
  0
ENDBLK
  5
AE
  8
0
  0
BLOCK
  8
0
  2
*D8
 70
     1
 10
0.0
 20
0.0
 30
0.0
  3
*D8
  1

  0
LINE
  5
B5
  8
—ÀŒ…1
 10
71.5951081188873
 20
-0.0005000000000178
 30
0.0
 11
71.59510811888728
 21
-0.0017641984561701
 31
0.0
  0
LINE
  5
B6
  8
—ÀŒ…1
 10
71.59139590558823
 20
-0.0004999999999538
 30
0.0
 11
71.59139590558821
 21
-0.0017641984561061
 31
0.0
  0
LINE
  5
B7
  8
—ÀŒ…1
 10
71.59510811888728
 20
-0.0012641984561701
 30
0.0
 11
71.59139590558821
 21
-0.0012641984561061
 31
0.0
  0
LINE
  5
B8
  8
—ÀŒ…1
 10
71.59325201223774
 20
-0.0012641984561381
 30
0.0
 11
71.59281602734585
 21
-0.0044363896356055
 31
0.0
  0
LINE
  5
B9
  8
—ÀŒ…1
 10
71.59281602734585
 20
-0.0044363896356055
 30
0.0
 11
71.59481602734584
 21
-0.0044363896356399
 31
0.0
  0
TEXT
  5
BA
  8
—ÀŒ…1
  6
CONTINUOUS
 62
     0
 10
71.59507368301723
 20
-0.0054363896356444
 30
0.0
 40
0.002
  1
0.00371
 50
359.9999999990127
  7
—“»À‹1
  0
INSERT
  5
BB
  8
—ÀŒ…1
  2
_OBLIQUE
 10
71.59510811888728
 20
-0.0012641984561701
 30
0.0
 41
0.001
 42
0.001
 43
0.001
 50
359.9999999990127
  0
INSERT
  5
BC
  8
—ÀŒ…1
  2
_OBLIQUE
 10
71.59139590558821
 20
-0.0012641984561061
 30
0.0
 41
0.001
 42
0.001
 43
0.001
 50
179.9999999990127
  0
POINT
  5
BD
  8
DEFPOINTS
 62
     0
 10
71.59510811888731
 20
-0.0000000000000178
 30
0.0
  0
POINT
  5
BE
  8
DEFPOINTS
 62
     0
 10
71.59139590558824
 20
0.0000000000000462
 30
0.0
  0
POINT
  5
BF
  8
DEFPOINTS
 62
     0
 10
71.59139590558821
 20
-0.0012641984561061
 30
0.0
  0
ENDBLK
  5
C0
  8
0
  0
BLOCK
  8
0
  2
*D9
 70
     1
 10
0.0
 20
0.0
 30
0.0
  3
*D9
  1

  0
LINE
  5
C7
  8
0
 10
71.59360000000004
 20
-0.0005000000000071
 30
0.0
 11
71.59360000000004
 21
-0.0113366652971375
 31
0.0
  0
LINE
  5
C8
  8
0
 10
71.54859999999998
 20
-0.0004999999999893
 30
0.0
 11
71.54859999999998
 21
-0.0113366652971198
 31
0.0
  0
LINE
  5
C9
  8
0
 10
71.59360000000004
 20
-0.0108366652971375
 30
0.0
 11
71.57702496589359
 21
-0.010836665297131
 31
0.0
  0
LINE
  5
CA
  8
0
 10
71.54859999999998
 20
-0.0108366652971198
 30
0.0
 11
71.56517503410642
 21
-0.0108366652971263
 31
0.0
  0
TEXT
  5
CB
  8
0
  6
CONTINUOUS
 62
     0
 10
71.56519523809524
 20
-0.0118366652971287
 30
0.0
 40
0.002
  1
0.04500
 50
359.9999999999774
  7
—“»À‹1
  0
INSERT
  5
CC
  8
0
  2
_OBLIQUE
 10
71.59360000000004
 20
-0.0108366652971375
 30
0.0
 41
0.001
 42
0.001
 43
0.001
 50
359.9999999999774
  0
INSERT
  5
CD
  8
0
  2
_OBLIQUE
 10
71.54859999999998
 20
-0.0108366652971198
 30
0.0
 41
0.001
 42
0.001
 43
0.001
 50
179.9999999999774
  0
POINT
  5
CE
  8
DEFPOINTS
 62
     0
 10
71.59360000000004
 20
-0.0000000000000071
 30
0.0
  0
POINT
  5
CF
  8
DEFPOINTS
 62
     0
 10
71.54859999999998
 20
0.0000000000000107
 30
0.0
  0
POINT
  5
D0
  8
DEFPOINTS
 62
     0
 10
71.54859999999998
 20
-0.0108366652971198
 30
0.0
  0
ENDBLK
  5
D1
  8
0
  0
BLOCK
  8
0
  2
*D10
 70
     1
 10
0.0
 20
0.0
 30
0.0
  3
*D10
  1

  0
LINE
  5
D8
  8
0
 10
71.59360000000004
 20
-0.0005000000000071
 30
0.0
 11
71.59360000000004
 21
-0.0073599890593533
 31
0.0
  0
LINE
  5
D9
  8
0
 10
71.55360000000002
 20
-0.0004999999999929
 30
0.0
 11
71.55360000000002
 21
-0.0073599890593391
 31
0.0
  0
LINE
  5
DA
  8
0
 10
71.59360000000004
 20
-0.0068599890593533
 30
0.0
 11
71.577272523603
 21
-0.0068599890593475
 31
0.0
  0
LINE
  5
DB
  8
0
 10
71.55360000000002
 20
-0.0068599890593391
 30
0.0
 11
71.56542259181583
 21
-0.0068599890593433
 31
0.0
  0
TEXT
  5
DC
  8
0
  6
CONTINUOUS
 62
     0
 10
71.56544279580466
 20
-0.0079414676431467
 30
0.0
 40
0.002
  1
0.04000
 50
359.9999999999797
  7
—“»À‹1
  0
INSERT
  5
DD
  8
0
  2
_OBLIQUE
 10
71.59360000000004
 20
-0.0068599890593533
 30
0.0
 41
0.001
 42
0.001
 43
0.001
 50
359.9999999999797
  0
INSERT
  5
DE
  8
0
  2
_OBLIQUE
 10
71.55360000000002
 20
-0.0068599890593391
 30
0.0
 41
0.001
 42
0.001
 43
0.001
 50
179.9999999999797
  0
POINT
  5
DF
  8
DEFPOINTS
 62
     0
 10
71.59360000000004
 20
-0.0000000000000071
 30
0.0
  0
POINT
  5
E0
  8
DEFPOINTS
 62
     0
 10
71.55360000000002
 20
0.0000000000000071
 30
0.0
  0
POINT
  5
E1
  8
DEFPOINTS
 62
     0
 10
71.55360000000002
 20
-0.0068599890593391
 30
0.0
  0
ENDBLK
  5
E2
  8
0
  0
BLOCK
  8
0
  2
*X11
 70
     1
 10
0.0
 20
0.0
 30
0.0
  3
*X11
  1

  0
TEXT
  5
10D
  8
—ÀŒ…1
  6
CONTINUOUS
 10
71.54728559166261
 20
-0.0446302008598388
 30
0.0
 40
0.01
  1
0.00371 / 5= 0.000742
  7
—“»À‹1
  0
TEXT
  5
10E
  8
—ÀŒ…1
  6
CONTINUOUS
 10
71.54728559166261
 20
-0.0631718675265055
 30
0.0
 40
0.01
  1
0.00151 / 0.000742 =
  7
—“»À‹1
  0
TEXT
  5
10F
  8
—ÀŒ…1
  6
CONTINUOUS
 10
71.54728559166261
 20
-0.0798385341931722
 30
0.0
 40
0.01
  1
2.035040431266846
  7
—“»À‹1
  0
TEXT
  5
110
  8
—ÀŒ…1
  6
CONTINUOUS
 10
71.54728559166261
 20
-0.0965052008598388
 30
0.0
 40
0.01
  1
0.040 + 2.035040431266846 ~~
  7
—“»À‹1
  0
TEXT
  5
111
  8
—ÀŒ…1
  6
CONTINUOUS
 10
71.54728559166261
 20
-0.1131718675265055
 30
0.0
 40
0.01
  1
0.042
  7
—“»À‹1
  0
ENDBLK
  5
113
  8
0
  0
ENDSEC
  0
SECTION
  2
ENTITIES
  0
TEXT
  5
6C
  8
0
 10
-3.214821718678991
 20
-2.481519215083665
 30
0.0
 40
4.999999999999999
  1
1
  7
\U+0413\U+041E\U+0421\U+0422
  0
TEXT
  5
6E
  8
0
 10
78.17737154695953
 20
-2.275410885549093
 30
0.0
 40
4.999999999999999
  1
3
  7
\U+0413\U+041E\U+0421\U+0422
  0
TEXT
  5
6F
  8
0
 10
36.45170888076507
 20
29.96325306548431
 30
0.0
 40
4.999999999999999
  1
2
  7
\U+0413\U+041E\U+0421\U+0422
  0
TEXT
  5
70
  8
0
 10
34.60447698891574
 20
-26.15517723432498
 30
0.0
 40
4.999999999999999
  1
4
  7
\U+0413\U+041E\U+0421\U+0422
  0
LINE
  5
71
  8
0_045
 10
37.8540588269247
 20
28.08570341682273
 30
0.0
 11
0.0
 21
0.0
 31
0.0
  0
LINE
  5
73
  8
0_045
 10
0.0
 20
0.0
 30
0.0
 11
71.54859999999998
 21
0.0000000000000107
 31
0.0
  0
LINE
  5
74
  8
0_045
 10
71.54639590558821
 20
0.0000000000000213
 30
0.0
 11
34.51622220074263
 21
-21.51792161499252
 31
0.0
  0
LINE
  5
75
  8
0_045
 10
71.54639590558818
 20
0.0000000000000639
 30
0.0
 11
37.85405882692474
 21
28.08570341682262
 31
0.0
  0
TEXT
  5
76
  8
0_045
 10
71.4931751447291
 20
0.0286797377198127
 30
0.0
 40
0.01
  1
0.045
 50
319.6096217818971
  7
\U+0413\U+041E\U+0421\U+0422
  0
LINE
  5
77
  8
0_045
 10
37.85405882692474
 20
28.08570341682262
 30
0.0
 11
34.51622220074263
 21
-21.51792161499252
 31
0.0
  0
LINE
  5
78
  8
0_045
 10
0.0
 20
0.0
 30
0.0
 11
34.51622220074263
 21
-21.51792161499252
 31
0.0
  0
LINE
  5
79
  8
»—’ŒƒÕŒ≈
 10
0.0000000000000415
 20
-0.0000000000000395
 30
0.0
 11
71.59360000000004
 21
-0.0000000000000071
 31
0.0
  0
LINE
  5
7B
  8
»—’ŒƒÕŒ≈
 10
0.0
 20
0.0
 30
0.0
 11
37.8930413910162
 21
28.10868410702881
 31
0.0
  0
LINE
  5
7C
  8
»—’ŒƒÕŒ≈
 10
37.8930413910162
 20
28.10868410702881
 30
0.0
 11
71.62480542747396
 21
-0.0000000000000284
 31
0.0
  0
LINE
  5
7D
  8
»—’ŒƒÕŒ≈
 10
71.62480542747396
 20
-0.0000000000000284
 30
0.0
 11
34.55544970335622
 21
-21.54005906303002
 31
0.0
  0
LINE
  5
7E
  8
»—’ŒƒÕŒ≈
 10
34.55544970335622
 20
-21.54005906303002
 30
0.0
 11
0.0000000000000415
 21
-0.0000000000000395
 31
0.0
  0
LINE
  5
7F
  8
»—’ŒƒÕŒ≈
 10
37.8930413910162
 20
28.10868410702881
 30
0.0
 11
34.55544970335622
 21
-21.54005906303002
 31
0.0
  0
LINE
  5
80
  8
0_040
 10
37.85839021970233
 20
28.08825687120418
 30
0.0
 11
0.000000000000007
 21
0.0000000000000188
 31
0.0
  0
LINE
  5
82
  8
0_040
 10
0.0000000000000194
 20
0.0000000000000089
 30
0.0
 11
34.52058083748217
 21
-21.52038129966243
 31
0.0
  0
LINE
  5
83
  8
0_040
 10
34.52058083748217
 20
-21.52038129966243
 30
0.0
 11
37.85839021970233
 21
28.08825687120418
 31
0.0
  0
LINE
  5
84
  8
0_040
 10
37.85839021970233
 20
28.08825687120418
 30
0.0
 11
71.55510811888729
 21
-0.0000000000000036
 31
0.0
  0
LINE
  5
85
  8
0_040
 10
71.55510811888729
 20
-0.0000000000000071
 30
0.0
 11
34.52058083748217
 21
-21.52038129966243
 31
0.0
  0
LINE
  5
86
  8
0_040
 10
71.55360000000002
 20
0.0000000000000071
 30
0.0
 11
0.0000000000000223
 21
0.0000000000000024
 31
0.0
  0
TEXT
  5
87
  8
0_040
 10
71.51087657222797
 20
0.043325542515845
 30
0.0
 40
0.01
  1
0.040
 50
319.6096217818971
  7
\U+0413\U+041E\U+0421\U+0422
  0
DIMENSION
  5
88
  8
0_040
  2
*D4
 10
71.59510811888731
 20
0.0080272020311405
 30
0.0
 11
71.6005885059163
 21
0.018514366472516
 31
0.0
 70
   161
  3
 Œœ»ﬂ
 13
71.59360000000004
 23
-0.0000000000000071
 33
0.0
 14
71.59510811888731
 24
-0.0000000000000213
 34
0.0
  0
DIMENSION
  5
9D
  8
0_045
  2
*D7
 10
71.59360000000004
 20
0.0080272020311725
 30
0.0
 11
71.58555111054653
 21
0.0178262304717691
 31
0.0
 70
   161
  3
 Œœ»ﬂ
 13
71.59139590558824
 23
0.0000000000000462
 33
0.0
 14
71.59360000000004
 24
-0.0000000000000071
 34
0.0
  0
DIMENSION
  5
AF
  8
—ÀŒ…1
  2
*D8
 10
71.59139590558821
 20
-0.0012641984561061
 30
0.0
 11
71.59581602734585
 21
-0.0044363896356572
 31
0.0
 70
   161
  3
 Œœ»ﬂ
 13
71.59510811888731
 23
-0.0000000000000178
 33
0.0
 14
71.59139590558824
 24
0.0000000000000462
 34
0.0
  0
DIMENSION
  5
C1
  8
0
  2
*D9
 10
71.54859999999998
 20
-0.0108366652971198
 30
0.0
 11
71.5711
 21
-0.0108366652971287
 31
0.0
 70
   161
  3
 Œœ»ﬂ
 13
71.59360000000004
 23
-0.0000000000000071
 33
0.0
 14
71.54859999999998
 24
0.0000000000000107
 34
0.0
  0
DIMENSION
  5
D2
  8
0
  2
*D10
 10
71.55360000000002
 20
-0.0068599890593391
 30
0.0
 11
71.57134755770942
 21
-0.0069414676431467
 31
0.0
 70
   161
  3
 Œœ»ﬂ
 13
71.59360000000004
 23
-0.0000000000000071
 33
0.0
 14
71.55360000000002
 24
0.0000000000000071
 34
0.0
  0
LINE
  5
E3
  8
0_040
 10
71.55510811888729
 20
-0.0000000000000036
 30
0.0
 11
71.59510811888731
 21
-0.0000000000000178
 31
0.0
  0
LINE
  5
E4
  8
0_045
 10
71.54639590558818
 20
0.0000000000000639
 30
0.0
 11
71.59139590558824
 21
0.0000000000000462
 31
0.0
  0
INSERT
  5
E5
  8
—ÀŒ…1
  2
*X11
 10
0.0
 20
0.0
 30
0.0
  0
ENDSEC
  0
EOF
